<svg xmlns="http://www.w3.org/2000/svg" width="130px" height="130px" clip-rule="evenodd" fill-rule="evenodd" viewBox="0 0 54516 54516" xml:space="preserve"> <defs>  <style type="text/css">   <![CDATA[    .str0 {stroke:#5762D5;stroke-width:838.547;stroke-linecap:round;stroke-linejoin:round}    .fil0 {fill:none}   ]]>  </style> </defs>  <rect class="fil0" width="54516" height="54516"></rect>  <path class="fil0 str0" d="m26078 21347c-3489-348-5467 1633-6122 5653l3133 475m-29 4712l-3052 4105m5836-4434l-3052 4106m-214-6467l-3053 4105m-7305 4357l-1825-19c-154 1099 519 2322 1892 2528l29976-55c1069-39 1715-996 1880-2463l-2097 9m-2234-21147c8 0 244-2 252-2 1092 12 1982 911 1982 2006v19143h-29826v-19143c0-1103 902-2006 2006-2006h13035m11305 2135h563c555 0 1008 454 1008 1008v15404c0 555-453 1009-1008 1009h-14220m-6617 0h-3156c-555 0-1008-454-1008-1009v-5957-789m0-1093v-895m0-1168v-1639-3863c0-554 453-1008 1008-1008h10319m7034-5602c1612-891 3568-1357 5358-1597 414 2385 420 4312 60 5956-360 3294-4829 7998-10432 13115-1624 735-4877-1477-4386-3342 3224-7014 6227-12586 8982-13885m5836 4112c-2696-172-4732-1398-5836-4112m231 12585c1669 2613 377 5129-3196 7571l-1511-3038m3619-12967c-1429 235-2397 1583-2163 3012 235 1430 1584 2398 3013 2163 1429-234 2397-1583 2163-3012s-1583-2398-3013-2163z"></path></svg>