<svg xmlns="http://www.w3.org/2000/svg" width="102px" height="102px" clip-rule="evenodd" fill-rule="evenodd" viewBox="0 0 93 93" xml:space="preserve"> <defs>  <style type="text/css">   <![CDATA[    .str0 {stroke:#5762D5;stroke-width:1.63822;stroke-linecap:round;stroke-linejoin:round}    .fil0 {fill:none}   ]]>  </style> </defs>  <rect class="fil0" width="92.894" height="92.894"></rect>  <path class="fil0 str0" d="m74 35v34m-58-42l5-9h51l5 9m-11-8l4 8v5m-9-13l2 8v4m-8-12l2 8v5m-7-14v9 6m-7-15v9 4m-5-12l-1 8v4m-4-12l-3 8v5m-3-13l-4 7v6m31 19l3-4m3 7l3-3m-5 5m3-8l-1 1m-1 1l-4 4m-15 1v4m3 9v-24c0-1 0-2-1-2h-16c-1 0-2 1-2 2v24m-5 0v-33m-2 34h59c1 0 2 1 2 2s-1 2-2 2h-59c-1 0-2-1-2-2s1-2 2-2zm-1-42h7 7 7 6 7 7 6 7 7v5c0 2-2 3-3 3-2 0-4-1-4-3 0 2-1 3-3 3s-4-1-4-3c0 2-1 3-3 3s-3-1-3-3c-1 2-2 3-4 3-1 0-3-1-3-2-1 1-2 2-3 2-2 0-4-1-4-3 0 2-1 3-3 3s-3-1-3-3v-1c0 2-2 4-4 4-1 0-3-1-3-3-1 2-2 3-4 3-1 0-3-1-3-3 0 2-1 3-3 3s-4-1-4-3v-5zm32 15h20c1 0 2 1 2 2v14c0 1-1 2-2 2h-20s-1-1-1-2v-14c0-1 1-2 1-2z"></path></svg>