<svg xmlns="http://www.w3.org/2000/svg" width="102px" height="102px" clip-rule="evenodd" fill-rule="evenodd" viewBox="0 0 91531 91531" xml:space="preserve"> <defs>  <style type="text/css">   <![CDATA[    .str0 {stroke:#5762D5;stroke-width:1794.36;stroke-linecap:round;stroke-linejoin:round}    .fil0 {fill:none}    .fil1 {fill:#5762D5;fill-rule:nonzero}   ]]>  </style> </defs>  <rect class="fil0" width="91531" height="91531"></rect>  <path class="fil0 str0" d="m50552 71109v-7583m-33017-8911h57957m-40262 16941h22396m-15152-447v-7540m-25125-31084v-8805c0-1322 1080-2402 2402-2402h53525c1322 0 2402 1080 2402 2402v37400c0 1322-1080 2402-2402 2402h-53525c-1322 0-2402-1080-2402-2402v-22313-3338-2944"></path>  <path class="fil1" d="m46011 37215l-9154 9112c-341 414-419 892-316 1326v1l3-1c71 300 225 586 436 827 216 247 494 448 802 571 509 202 1131 195 1760-157l9328-8820c275-259 673-310 995-158 3008 1425 5494 628 7151-991 606-592 1111-1301 1494-2054 385-756 645-1545 763-2298 209-1333-10-2569-751-3271l-3842 4274c-331 366-898 397-1265 66l-46-44-3198-2861c-367-328-398-894-70-1261l37-39 3864-4170c-943-501-2155-596-3371-348-998 203-1992 637-2847 1260-841 613-1550 1417-1993 2372-700 1505-741 3420 386 5622 181 354 102 775-167 1041l1 1zm503 20435c896 0 1346 448 1346 1346 0 897 0 1346-1346 1346s-1346-449-1346-1346c0-898 449-1346 1346-1346zm-10953-12558l8741-8700c-1112-2521-985-4766-137-6592 575-1240 1488-2276 2568-3065 1066-778 2302-1316 3540-1569 2102-429 4242-52 5684 1321l-2 2c353 335 371 895 40 1253l-3955 4269 1904 1705 3731-4150c254-318 703-431 1085-249 1976 942 2650 3161 2279 5529-149 952-466 1928-930 2839-466 913-1088 1783-1845 2522-2038 1993-5022 3036-8597 1577l-8954 8467c-50 49-107 95-171 133-1187 717-2405 734-3419 329-580-230-1093-602-1489-1055-403-459-696-1009-834-1592l3-1c-231-965-56-2018 705-2917l1 2 52-58z"></path></svg>